<svg width="16" height="16" viewBox="0 0 16 16" fill="none" xmlns="http://www.w3.org/2000/svg">
<path d="M1.75146 12.9635C2.03604 12.8015 2.33839 12.6684 2.65024 12.5644C2.33839 12.6709 2.03722 12.8039 1.75146 12.9647V12.9635Z" fill="#2862AD"/>
<path d="M3.73623 12.3105C3.81568 12.3008 3.89631 12.2911 3.97812 12.2863C3.89631 12.2923 3.81449 12.3008 3.73623 12.3117C3.64968 12.3226 3.56431 12.3371 3.47656 12.3516C3.56312 12.3359 3.64849 12.3214 3.73623 12.3105Z" fill="#2862AD"/>
<path d="M5.47363 9.49165C5.4821 9.49528 5.49056 9.4977 5.49903 9.50133C5.49056 9.4977 5.4821 9.49528 5.47363 9.49286V9.49165Z" fill="#2862AD"/>
<path d="M11.2394 11.6805C11.0224 11.851 10.8149 12.0384 10.6193 12.244C10.1592 12.7277 9.78332 13.3033 9.5284 13.9213C9.26161 14.5767 9.10154 15.2902 9.09087 16L5.1709 15.7545C5.42583 14.665 5.8764 13.6262 6.49297 12.7023C6.8143 12.2234 7.17831 11.7772 7.58383 11.3721C7.65023 11.3044 7.719 11.2379 7.78895 11.1726C7.85891 11.106 7.93005 11.0432 8.0012 10.9791C8.0012 10.9791 8.01661 10.967 8.02254 10.9597C8.77073 10.3115 9.62562 9.82542 10.5291 9.48682C10.6691 10.2475 10.9098 10.9851 11.2394 11.6805Z" fill="url(#paint0_linear_940_110)"/>
<path d="M15.3384 11.0371L13.1697 14.3747C12.3729 13.6068 11.7148 12.6878 11.2394 11.6804C10.9097 10.9851 10.669 10.2474 10.5291 9.48681C10.5256 9.47714 10.5244 9.46746 10.5232 9.45779C10.3489 8.47222 10.3619 7.47457 10.5244 6.50714C11.2406 6.76593 11.9876 6.92192 12.744 6.97876C12.7808 7.25569 12.8377 7.5314 12.9136 7.80833C13.0938 8.45408 13.3962 9.07445 13.791 9.60895C14.2155 10.1725 14.7396 10.6707 15.3384 11.0359V11.0371Z" fill="url(#paint1_linear_940_110)"/>
<path d="M15.999 6.62081C14.9472 6.94127 13.8374 7.0622 12.7454 6.97876C11.9889 6.92192 11.2419 6.76472 10.5257 6.50714C10.5174 6.50593 10.5091 6.5023 10.5008 6.49868C9.57714 6.16129 8.73765 5.65339 7.99658 5.02214C8.57284 4.51787 9.07914 3.935 9.50362 3.29771C9.75855 3.40412 10.0206 3.4924 10.2945 3.56375C10.9324 3.727 11.6118 3.77175 12.2628 3.68831C12.9541 3.59519 13.6406 3.38115 14.2477 3.03529L16.0001 6.6196L15.999 6.62081Z" fill="url(#paint2_linear_940_110)"/>
<path d="M10.8266 0.245484C10.5728 1.33384 10.1234 2.37382 9.50332 3.29771C9.07883 3.93621 8.57253 4.51908 7.99628 5.02214C7.99035 5.02819 7.98205 5.03424 7.97493 5.04149C7.22675 5.68725 6.37422 6.1758 5.46952 6.51319C5.32961 5.75255 5.08891 5.01489 4.75928 4.31955C4.97626 4.14904 5.18376 3.96161 5.37941 3.75603C5.83709 3.27231 6.21296 2.6967 6.47026 2.07996C6.73705 1.42211 6.89712 0.709848 6.90779 0L10.8266 0.245484Z" fill="url(#paint3_linear_940_110)"/>
<path d="M5.47318 9.49165C4.75819 9.23528 4.01001 9.07808 3.25471 9.02124C3.21795 8.74431 3.16103 8.4686 3.08515 8.19288C2.90374 7.54713 2.60256 6.92555 2.20654 6.39226C1.78205 5.82874 1.25796 5.3293 0.65918 4.96531L2.82904 1.62527C3.62583 2.39559 4.28391 3.31222 4.75938 4.31955C5.08901 5.01489 5.3297 5.75255 5.46962 6.51319C5.4708 6.52286 5.47318 6.53254 5.47436 6.54221C5.64866 7.52778 5.63799 8.52422 5.47318 9.49165Z" fill="url(#paint4_linear_940_110)"/>
<path d="M7.94191 10.9283C7.92057 10.9089 7.89804 10.892 7.8767 10.8739C7.82334 10.8279 7.76998 10.7856 7.71544 10.7445C7.67512 10.7106 7.63362 10.6792 7.59094 10.6489C7.43087 10.528 7.26842 10.4143 7.10005 10.3055C7.00875 10.245 6.9139 10.187 6.81904 10.1314C6.77042 10.1023 6.72062 10.0745 6.67201 10.0455C6.56292 9.98383 6.45147 9.92336 6.33764 9.86652C6.28902 9.84234 6.23922 9.81694 6.19061 9.79397C6.17401 9.7855 6.15504 9.77704 6.13725 9.76857C6.03884 9.72262 5.94161 9.6803 5.84201 9.63676C5.84201 9.63676 5.84082 9.63555 5.83727 9.63555C5.79221 9.6162 5.74597 9.59806 5.69854 9.57872C5.63214 9.55211 5.56455 9.52672 5.49697 9.50132C5.48867 9.49769 5.48037 9.49528 5.47207 9.49286C4.75708 9.23407 4.0089 9.07807 3.2536 9.02124C2.16156 8.9378 1.05291 9.06114 0 9.38039L1.75011 12.9635C1.96236 12.8426 2.18646 12.7374 2.41648 12.6479C2.49356 12.6176 2.57181 12.5898 2.64888 12.5644C2.75086 12.5282 2.85757 12.4967 2.9631 12.4677C3.13266 12.4217 3.3034 12.3818 3.47533 12.3516C3.56188 12.3359 3.64725 12.3214 3.735 12.3105C3.81444 12.3008 3.89507 12.2911 3.97688 12.2863C4.05751 12.2803 4.13814 12.2754 4.21877 12.2742C4.71677 12.2585 5.2207 12.3117 5.7021 12.4362C5.82778 12.4701 5.9511 12.504 6.07204 12.5451C6.12658 12.562 6.17875 12.5802 6.23211 12.5995C6.2416 12.6043 6.25227 12.608 6.26175 12.6104C6.2914 12.6213 6.32222 12.6346 6.35187 12.6455L6.49178 12.7023C6.81311 12.2234 7.17712 11.7772 7.58264 11.3721C7.64904 11.3044 7.71781 11.2378 7.78777 11.1725C7.85772 11.106 7.92887 11.0432 8.00001 10.9791C7.98104 10.9621 7.96088 10.944 7.94072 10.9283H7.94191Z" fill="url(#paint5_linear_940_110)"/>
<defs>
<linearGradient id="paint0_linear_940_110" x1="12.4144" y1="9.52793" x2="6.13463" y2="15.6853" gradientUnits="userSpaceOnUse">
<stop stop-color="#35B537"/>
<stop offset="1" stop-color="#66FF66"/>
</linearGradient>
<linearGradient id="paint1_linear_940_110" x1="11.9437" y1="5.65218" x2="12.9002" y2="9.93726" gradientUnits="userSpaceOnUse">
<stop stop-color="#00337C"/>
<stop offset="1" stop-color="#0066E0"/>
</linearGradient>
<linearGradient id="paint2_linear_940_110" x1="6.12434" y1="3.32189" x2="15.6156" y2="5.47578" gradientUnits="userSpaceOnUse">
<stop stop-color="#35B537"/>
<stop offset="1" stop-color="#66FF66"/>
</linearGradient>
<linearGradient id="paint3_linear_940_110" x1="4.38696" y1="5.81785" x2="7.20662" y2="2.92143" gradientUnits="userSpaceOnUse">
<stop stop-color="#00337C"/>
<stop offset="1" stop-color="#0066E0"/>
</linearGradient>
<linearGradient id="paint4_linear_940_110" x1="3.13021" y1="9.69965" x2="3.13021" y2="1.88527" gradientUnits="userSpaceOnUse">
<stop stop-color="#35B537"/>
<stop offset="1" stop-color="#66FF66"/>
</linearGradient>
<linearGradient id="paint5_linear_940_110" x1="7.53877" y1="13.9757" x2="3.40443" y2="10.9675" gradientUnits="userSpaceOnUse">
<stop stop-color="#00337C"/>
<stop offset="1" stop-color="#0066E0"/>
</linearGradient>
</defs>
</svg>
